<svg  viewBox="0 0 48 48" fill="none" xmlns="http://www.w3.org/2000/svg">
	<path d="M24 48C4.64362 48 0 43.3564 0 24C0 4.64362 4.64362 0 24 0C43.3564 0 48 4.64362 48 24C48 43.3564 43.3564 48 24 48ZM17.2057 11.8778L9.67819 28.9858C9.336 29.8168 9.04275 30.8919 9.04275 31.8208C9.04275 36.0733 12.0244 39.0551 16.2769 39.0551C17.6706 39.0551 18.8278 38.6889 20.0044 38.3167L20.0053 38.3162C21.222 37.9312 22.4595 37.5397 24 37.5397C25.5585 37.5397 26.7664 37.9279 27.9596 38.3111L27.96 38.3113C29.1244 38.6854 30.2747 39.0551 31.7229 39.0551C35.9754 39.0551 38.9573 36.0733 38.9573 31.8208C38.9573 30.8919 38.6638 29.8168 38.3218 28.9858L30.7944 11.8778C29.5232 8.994 27.0795 7.42969 24 7.42969C20.9205 7.42969 18.4766 8.99381 17.2057 11.8778ZM16.5701 31.6742L24 14.8596L31.332 31.6742C29.2301 30.6478 26.5907 30.159 24 30.159C21.3116 30.159 18.7699 30.6478 16.5703 31.6742H16.5701Z" fill="#5A46FF" />
</svg>
