<svg viewBox="0 0 61 36" fill="none" xmlns="http://www.w3.org/2000/svg">
	<g clip-path="url(#clip0_5_153)">
		<path d="M17.0334 13.0442C17.0334 13.7824 17.1134 14.3807 17.2529 14.8195C17.4301 15.3132 17.6434 15.7932 17.8911 16.2555C17.9908 16.4151 18.0306 16.5746 18.0306 16.7144C18.0306 16.9136 17.9111 17.1132 17.6518 17.3127L16.3953 18.1504C16.2158 18.2701 16.0362 18.3299 15.8765 18.3299C15.6772 18.3299 15.4776 18.2301 15.2781 18.0506C15.0094 17.7618 14.769 17.4479 14.5602 17.1132C14.3607 16.7744 14.1612 16.3951 13.9419 15.9365C12.3861 17.7713 10.4313 18.6889 8.07788 18.6889C6.40259 18.6889 5.06611 18.2101 4.0887 17.2529C3.11153 16.2953 2.61294 15.0188 2.61294 13.4233C2.61294 11.728 3.21129 10.3518 4.428 9.31459C5.64447 8.27741 7.26023 7.75883 9.31459 7.75883C9.9927 7.75883 10.6908 7.81859 11.4287 7.91836C12.1668 8.01812 12.9247 8.17765 13.7226 8.35718V6.90118C13.7226 5.38518 13.4033 4.32824 12.7849 3.70989C12.1468 3.09153 11.0696 2.79224 9.53388 2.79224C8.83576 2.79224 8.11788 2.87224 7.37976 3.05177C6.64188 3.23106 5.92376 3.45059 5.22564 3.72989C4.90659 3.86942 4.66729 3.94918 4.52753 3.98918C4.388 4.02918 4.28823 4.04894 4.20847 4.04894C3.92917 4.04894 3.78964 3.84942 3.78964 3.43059V2.45318C3.78964 2.13412 3.82964 1.89483 3.92917 1.7553C4.02894 1.61553 4.20847 1.476 4.48776 1.33647C5.18588 0.977416 6.02353 0.678122 7.0007 0.438828C7.97835 0.179534 9.01553 0.0600043 10.1125 0.0600043C12.4861 0.0600043 14.2214 0.598357 15.3384 1.67553C16.4353 2.75247 16.9939 4.388 16.9939 6.58212V13.0442H17.0339H17.0334ZM8.93553 16.076C9.59388 16.076 10.272 15.9565 10.9899 15.7169C11.708 15.4776 12.3463 15.0388 12.8847 14.4405C13.204 14.0616 13.4433 13.6428 13.5628 13.164C13.6826 12.6854 13.7624 12.1068 13.7624 11.4287V10.5911C13.1575 10.4438 12.5448 10.3306 11.9273 10.252C11.3055 10.173 10.6793 10.133 10.0525 10.1322C8.716 10.1322 7.73882 10.3915 7.0807 10.9301C6.42235 11.4687 6.10329 12.2266 6.10329 13.2238C6.10329 14.1612 6.34259 14.8593 6.84117 15.3381C7.32 15.8367 8.01812 16.076 8.93553 16.076ZM24.9518 18.2301C24.5927 18.2301 24.3534 18.1704 24.1939 18.0306C24.0343 17.9111 23.8946 17.6318 23.7751 17.2529L19.088 1.83506C18.968 1.436 18.9082 1.17671 18.9082 1.03718C18.9082 0.718122 19.0678 0.538357 19.3871 0.538357H21.3416C21.7205 0.538357 21.98 0.598357 22.1195 0.737886C22.2791 0.857651 22.3988 1.13695 22.5184 1.51577L25.8692 14.7198L28.9807 1.51577C29.0805 1.11695 29.2002 0.857651 29.3595 0.737886C29.5193 0.618357 29.7986 0.538592 30.1576 0.538592H31.7532C32.132 0.538592 32.3915 0.598357 32.5508 0.737886C32.7106 0.857651 32.8501 1.13695 32.9299 1.51577L36.0814 14.8793L39.5318 1.51577C39.6513 1.11695 39.7911 0.857651 39.9306 0.737886C40.0901 0.618357 40.3494 0.538592 40.7085 0.538592H42.5633C42.8826 0.538592 43.0621 0.698122 43.0621 1.03718C43.0621 1.13695 43.0421 1.23671 43.0221 1.35624C43.0021 1.476 42.9624 1.63553 42.8826 1.85506L38.0755 17.2727C37.956 17.6718 37.8165 17.9311 37.6567 18.0506C37.4972 18.1704 37.2379 18.2501 36.8991 18.2501H35.1838C34.8047 18.2501 34.5454 18.1904 34.3856 18.0506C34.2261 17.9111 34.0866 17.6518 34.0068 17.2529L30.9151 4.388L27.8435 17.2327C27.744 17.6318 27.6242 17.8911 27.4647 18.0306C27.3052 18.1704 27.0259 18.2301 26.6671 18.2301H24.9515H24.9518ZM50.5816 18.7687C49.5445 18.7687 48.5073 18.6489 47.5101 18.4096C46.5127 18.1704 45.7351 17.9108 45.2165 17.612C44.8972 17.4322 44.6777 17.2329 44.5981 17.0534C44.5204 16.8774 44.4797 16.6872 44.4784 16.4948V15.4776C44.4784 15.0588 44.6379 14.8593 44.9372 14.8593C45.0593 14.8597 45.1806 14.88 45.2962 14.9193C45.4158 14.9593 45.5953 15.0388 45.7948 15.1186C46.4993 15.4284 47.2347 15.6625 47.9887 15.8167C48.77 15.9753 49.5651 16.0554 50.3624 16.056C51.6188 16.056 52.5962 15.8367 53.2744 15.3979C53.9525 14.9591 54.3115 14.3209 54.3115 13.5031C54.3115 12.9447 54.132 12.4859 53.7729 12.1068C53.4139 11.728 52.7358 11.3889 51.7586 11.0696L48.8664 10.1722C47.4104 9.71341 46.3334 9.0353 45.6751 8.13765C45.0169 7.26 44.6779 6.28283 44.6779 5.24565C44.6779 4.408 44.8574 3.66989 45.2165 3.03153C45.5753 2.39342 46.0541 1.83506 46.6525 1.39624C47.2508 0.937416 47.9289 0.598357 48.7268 0.359063C49.5245 0.119769 50.3621 0.0200043 51.2398 0.0200043C51.6786 0.0200043 52.1374 0.0400043 52.5762 0.099769C53.0351 0.159534 53.4539 0.239298 53.8727 0.319063C54.2715 0.418828 54.6506 0.518592 55.0096 0.638357C55.3687 0.757886 55.6478 0.877651 55.8473 0.99718C56.1266 1.15695 56.3259 1.31647 56.4456 1.496C56.5654 1.65553 56.6252 1.87483 56.6252 2.15412V3.09153C56.6252 3.51036 56.4656 3.72989 56.1664 3.72989C56.0068 3.72989 55.7475 3.64989 55.4087 3.49036C54.2715 2.97177 52.9951 2.71247 51.5791 2.71247C50.4421 2.71247 49.5445 2.892 48.9261 3.27106C48.308 3.64989 47.9887 4.22847 47.9887 5.04612C47.9887 5.60471 48.1882 6.0833 48.5871 6.46236C48.9861 6.84118 49.724 7.22024 50.7812 7.5593L53.6134 8.45694C55.0494 8.91577 56.0866 9.55388 56.7049 10.3715C57.3233 11.1894 57.6226 12.1268 57.6226 13.164C57.6226 14.0216 57.4428 14.7995 57.1038 15.4776C56.7449 16.1558 56.2661 16.7541 55.6478 17.2329C55.0294 17.7315 54.2915 18.0906 53.4339 18.3499C52.5362 18.6292 51.5988 18.7687 50.5816 18.7687Z" fill="#FCFCFC" />
		<path d="M54.3513 28.4621C47.7894 33.3089 38.2553 35.8819 30.0579 35.8819C18.5692 35.8819 8.21765 31.6334 0.399058 24.5727C-0.219295 24.0143 0.339058 23.2565 1.07694 23.695C9.53388 28.6019 19.9654 31.5736 30.756 31.5736C38.036 31.5736 46.0341 30.0579 53.3941 26.9463C54.4911 26.4475 55.4285 27.6644 54.3513 28.4621ZM57.084 25.3506C56.2464 24.2736 51.5391 24.832 49.4049 25.0913C48.7666 25.1713 48.6668 24.6127 49.2454 24.1939C52.9951 21.5609 59.1584 22.319 59.8762 23.1965C60.5944 24.0941 59.6767 30.2572 56.1664 33.2092C55.628 33.668 55.1094 33.4287 55.3487 32.8303C56.1464 30.8555 57.9216 26.4077 57.084 25.3506Z" fill="#FF9900" />
	</g>
	<defs>
		<clipPath id="clip0_5_153">
			<rect width="60.2353" height="36" fill="white" />
		</clipPath>
	</defs>
</svg>
