<svg viewBox="0 0 48 48" fill="none" xmlns="http://www.w3.org/2000/svg">
	<path d="M24 0C10.704 0 0 10.704 0 24C0 37.296 10.704 48 24 48C37.296 48 48 37.296 48 24C48 10.704 37.296 0 24 0ZM29.6 8.666C29.86 8.658 30.096 8.938 29.942 9.222L23.854 20.382C23.8232 20.4389 23.8077 20.5028 23.809 20.5675C23.8103 20.6322 23.8284 20.6954 23.8614 20.7511C23.8945 20.8067 23.9414 20.8528 23.9976 20.8848C24.0538 20.9169 24.1173 20.9338 24.182 20.934H34.702C35.042 20.934 35.206 21.348 34.958 21.58L16.518 38.79C16.188 39.098 15.698 38.664 15.962 38.298L24.69 26.256C24.73 26.2002 24.7539 26.1346 24.759 26.0661C24.7642 25.9977 24.7504 25.9292 24.7193 25.868C24.6881 25.8069 24.6407 25.7555 24.5823 25.7196C24.5238 25.6836 24.4566 25.6643 24.388 25.664H13.254C13.1799 25.6638 13.1076 25.6416 13.0461 25.6003C12.9846 25.5589 12.9369 25.5003 12.9088 25.4317C12.8807 25.3631 12.8736 25.2878 12.8885 25.2152C12.9033 25.1426 12.9393 25.0761 12.992 25.024L29.352 8.778C29.4176 8.70954 29.5073 8.66936 29.602 8.666H29.6Z" fill="#34B4DC" />
</svg>
