<svg width="24" height="24" viewBox="0 0 24 24" fill="none" xmlns="http://www.w3.org/2000/svg">
	<path d="M12 2.24701C9.62543 2.24696 7.32833 3.09189 5.51977 4.63061C3.7112 6.16934 2.50921 8.30142 2.12888 10.6453C1.74855 12.9892 2.21471 15.392 3.44394 17.4237C4.67317 19.4553 6.58525 20.9832 8.838 21.734C9.338 21.822 9.525 21.522 9.525 21.259C9.525 21.022 9.513 20.234 9.513 19.397C7 19.859 6.35 18.784 6.15 18.222C5.92814 17.6748 5.57634 17.1898 5.125 16.809C4.775 16.622 4.275 16.159 5.112 16.147C5.43188 16.1816 5.7387 16.2929 6.00644 16.4713C6.27417 16.6497 6.49493 16.8901 6.65 17.172C6.78673 17.4177 6.9706 17.634 7.19107 17.8085C7.41153 17.9829 7.66427 18.1122 7.93478 18.1889C8.2053 18.2655 8.48828 18.288 8.76751 18.2551C9.04674 18.2222 9.31673 18.1345 9.562 17.997C9.60532 17.4884 9.83206 17.0128 10.2 16.659C7.975 16.409 5.65 15.547 5.65 11.722C5.63583 10.728 6.00258 9.76622 6.675 9.03401C6.36931 8.17023 6.40508 7.2223 6.775 6.38401C6.775 6.38401 7.612 6.12201 9.525 7.40901C11.1613 6.95896 12.8887 6.95896 14.525 7.40901C16.437 6.10901 17.275 6.38401 17.275 6.38401C17.645 7.22228 17.6808 8.17024 17.375 9.03401C18.0495 9.76496 18.4165 10.7276 18.4 11.722C18.4 15.559 16.062 16.409 13.837 16.659C14.0757 16.9009 14.2595 17.1913 14.3759 17.5105C14.4924 17.8297 14.5388 18.1703 14.512 18.509C14.512 19.847 14.5 20.922 14.5 21.259C14.5 21.522 14.687 21.834 15.187 21.734C17.4356 20.9769 19.342 19.4454 20.5658 17.4128C21.7897 15.3801 22.2513 12.9787 21.8684 10.6372C21.4854 8.29567 20.2828 6.16644 18.4752 4.62959C16.6676 3.09274 14.3726 2.2483 12 2.24701V2.24701Z" fill="#FCFCFC" />
</svg>
