<svg  viewBox="0 0 49 48" fill="none" xmlns="http://www.w3.org/2000/svg">
	<g clip-path="url(#clip0_5_171)">
		<path d="M29.1272 2.28882e-05C28.7787 2.28882e-05 28.4552 0.0747523 28.1564 0.174329C28.7912 0.597293 29.1396 1.15729 29.3137 1.79202C29.3263 1.87918 29.3512 1.94148 29.3636 2.02845C29.376 2.10318 29.3884 2.17791 29.3884 2.25245C29.4383 3.3476 29.1023 3.48445 28.8657 4.1316C28.5049 4.96548 28.6044 5.86148 29.04 6.58318C29.0773 6.67033 29.1272 6.76991 29.1893 6.85706C28.7164 3.70845 31.3423 3.2356 31.8276 2.25245C31.8649 1.39391 31.1556 0.821293 30.5956 0.423176C30.0604 0.0994111 29.5752 2.28882e-05 29.1272 2.28882e-05ZM33.0844 0.709293C33.0347 0.995599 33.072 0.92087 33.0596 1.07033C33.0472 1.16991 33.0472 1.29433 33.0347 1.39391C33.0099 1.49329 32.985 1.59287 32.9476 1.69245C32.9227 1.79221 32.8855 1.8916 32.8482 1.99118C32.7983 2.09075 32.761 2.17791 32.7112 2.27729C32.6739 2.32718 32.649 2.37706 32.6116 2.42675L32.537 2.53875C32.4749 2.62591 32.4126 2.71306 32.3503 2.7876C32.2756 2.86233 32.2135 2.94948 32.1263 3.0116V3.02402C32.0516 3.08633 31.977 3.16106 31.8899 3.22318C31.6286 3.42233 31.3299 3.5716 31.056 3.75833C30.969 3.82045 30.8819 3.87033 30.8072 3.94506C30.72 4.00718 30.6453 4.06929 30.5707 4.14421C30.4836 4.21875 30.4215 4.29348 30.3467 4.38063C30.2846 4.45518 30.2099 4.54252 30.16 4.62948C30.0979 4.71663 30.0358 4.8036 29.9859 4.89075C29.936 4.99052 29.8987 5.07748 29.8489 5.17687C29.8116 5.27663 29.7743 5.36379 29.7495 5.46318C29.712 5.57518 29.6872 5.67475 29.6623 5.77433C29.6499 5.82421 29.6499 5.88633 29.6375 5.93621C29.6249 5.98591 29.6249 6.03579 29.6126 6.08548C29.6126 6.18506 29.6 6.29706 29.6 6.39663C29.6 6.47136 29.6 6.54591 29.6126 6.62064C29.6126 6.72021 29.625 6.81979 29.6499 6.93179C29.6623 7.03136 29.6872 7.13075 29.712 7.23033C29.7495 7.33009 29.7743 7.42948 29.8118 7.52906C29.8364 7.59118 29.8739 7.65348 29.8987 7.70336L27.0366 6.59579C26.5585 6.45966 26.0772 6.33513 25.593 6.22233L24.809 6.03579C24.0623 5.88633 23.3032 5.77433 22.5442 5.69979C22.5194 5.69979 22.5067 5.68718 22.4821 5.68718C21.7418 5.61262 20.9983 5.57524 20.2543 5.57518C19.7067 5.57518 19.1592 5.60002 18.6242 5.63729C17.8649 5.68718 17.1059 5.78675 16.3466 5.91118C16.16 5.93621 15.9733 5.97348 15.7867 6.01094C15.4009 6.08548 15.0276 6.17264 14.6667 6.25979L14.1066 6.40906C13.92 6.48379 13.7457 6.57094 13.5716 6.64548L13.1609 6.83221C13.136 6.84464 13.111 6.84464 13.0987 6.85706C12.9741 6.91918 12.8621 6.96906 12.7501 7.03118C12.7201 7.04137 12.691 7.05389 12.663 7.06863C12.5261 7.13075 12.3893 7.20548 12.2773 7.26779C12.1901 7.30506 12.103 7.35475 12.0284 7.39202C11.9923 7.41491 11.9549 7.43571 11.9164 7.45433C11.8044 7.51645 11.6924 7.57875 11.5927 7.64106C11.4897 7.69763 11.39 7.75997 11.2941 7.82779C11.207 7.88991 11.12 7.93979 11.0453 8.00191C11.0329 8.01433 11.0204 8.01433 11.0078 8.02675C10.9333 8.07663 10.8461 8.13875 10.7714 8.20106L10.7466 8.22591L10.56 8.37518C10.535 8.38779 10.5101 8.41263 10.4853 8.42506C10.4232 8.47475 10.3609 8.53706 10.2986 8.58694C10.2861 8.6116 10.2613 8.62421 10.2489 8.63663C10.1741 8.71136 10.0994 8.77348 10.0249 8.84821C10.0122 8.84821 10.0122 8.86063 10 8.87306C9.92528 8.93518 9.85055 9.00991 9.77601 9.08463C9.7634 9.09706 9.7634 9.10948 9.75098 9.10948C9.68886 9.1716 9.62674 9.23391 9.56444 9.30863C9.53959 9.33348 9.50232 9.35833 9.47728 9.38318C9.41516 9.45791 9.34044 9.53263 9.26571 9.60718C9.25328 9.63221 9.22844 9.64464 9.21582 9.66948C9.11644 9.76906 9.02928 9.86864 8.92971 9.96821L8.89244 10.0055C8.69328 10.2171 8.48171 10.4286 8.25771 10.6154C8.03704 10.8123 7.80423 10.9952 7.56067 11.1629C7.31937 11.3322 7.07024 11.49 6.81413 11.6358C6.56014 11.7751 6.29838 11.8997 6.03013 12.0091C5.7654 12.1216 5.49541 12.2212 5.22109 12.3078C4.69855 12.4198 4.16321 12.6314 3.70298 12.6686C3.60321 12.6686 3.4914 12.6935 3.39182 12.7059C3.28779 12.7295 3.18407 12.7544 3.08067 12.7806L2.78194 12.8926C2.68236 12.9299 2.58298 12.9798 2.4834 13.0295C2.39625 13.0916 2.29667 13.1415 2.20952 13.2038C2.12236 13.2659 2.0354 13.3406 1.96067 13.4154C1.87352 13.4775 1.78636 13.5646 1.71182 13.6394C1.63709 13.7265 1.56236 13.8012 1.50025 13.8882C1.43813 13.9878 1.3634 14.0749 1.31352 14.1743C1.2514 14.2617 1.18909 14.3611 1.13921 14.4606C1.08952 14.5726 1.03982 14.6722 1.00236 14.7844C0.96311 14.8915 0.925771 14.9993 0.890364 15.1078C0.865517 15.2074 0.84067 15.3069 0.828247 15.4065C0.828247 15.4189 0.815635 15.4314 0.815635 15.4438C0.790788 15.5558 0.790788 15.7052 0.778364 15.7798C0.765941 15.8669 0.753517 15.9417 0.753517 16.0286C0.753517 16.0785 0.753517 16.1406 0.765941 16.1905C0.778364 16.2777 0.790788 16.3524 0.815823 16.4269C0.84067 16.5017 0.865517 16.5762 0.902976 16.6509V16.6634C0.940247 16.7381 0.989941 16.8128 1.03982 16.8874C1.08952 16.9621 1.1394 17.0368 1.20171 17.1114C1.26382 17.1735 1.33836 17.2484 1.41309 17.3105C1.48782 17.3852 1.56255 17.4474 1.64952 17.5097C1.94825 17.7709 2.02298 17.8581 2.40867 18.0572C2.47079 18.0945 2.53309 18.1194 2.60782 18.1568C2.62025 18.1568 2.63267 18.1692 2.64509 18.1692C2.64509 18.1941 2.64509 18.2065 2.65771 18.2314C2.67013 18.3311 2.69498 18.4305 2.71982 18.5301C2.74467 18.6421 2.78194 18.7417 2.8194 18.8288C2.85667 18.9036 2.88152 18.9781 2.91898 19.0528C2.9314 19.0777 2.94382 19.1027 2.95625 19.1149C3.00613 19.2147 3.05601 19.3017 3.10571 19.3888L3.29225 19.6501C3.35436 19.7248 3.42909 19.812 3.50382 19.8867C3.57855 19.9612 3.65328 20.0236 3.74025 20.0981C3.74025 20.0981 3.75286 20.1107 3.76509 20.1107C3.83982 20.1728 3.91455 20.2349 3.98909 20.2848C4.07625 20.3469 4.1634 20.3968 4.26298 20.4467C4.35013 20.4964 4.44971 20.5463 4.54909 20.5836C4.62382 20.6208 4.71098 20.6457 4.79813 20.6707C4.81055 20.6831 4.82298 20.6831 4.84782 20.6956C4.89771 20.708 4.95982 20.7204 5.00971 20.7328C4.97225 21.4048 4.95982 22.0396 5.0594 22.2636C5.1714 22.5124 5.71898 21.7534 6.26655 20.8823C6.19201 21.7408 6.14232 22.7488 6.26655 23.0476C6.4034 23.3587 7.15013 22.388 7.79728 21.3177C16.6206 19.2768 24.6722 25.3747 25.5185 33.9865C25.3566 32.6425 23.7017 31.8957 22.9425 32.0825C22.569 33.0033 21.9345 34.1856 20.9141 34.9197C21.001 34.0985 20.9638 33.2522 20.7895 32.4309C20.5158 33.5757 19.9806 34.646 19.2463 35.5669C18.0642 35.654 16.8821 35.0816 16.2596 34.2229C16.2099 34.1856 16.1975 34.1109 16.1602 34.061C16.1227 33.974 16.0855 33.8869 16.0604 33.7997C16.0242 33.7163 15.9991 33.6285 15.9859 33.5385C15.9735 33.4513 15.9735 33.3642 15.9735 33.2646V33.078C15.9859 32.9909 16.0107 32.9037 16.0356 32.8166C16.0604 32.7296 16.0855 32.6425 16.1227 32.5553C16.1726 32.4682 16.2099 32.381 16.272 32.294C16.4836 31.6966 16.4836 31.2113 16.0979 30.925C16.0232 30.8763 15.944 30.8347 15.8615 30.8008C15.8116 30.7882 15.7495 30.7631 15.6996 30.7509C15.6623 30.7383 15.6375 30.7259 15.6 30.7134C15.513 30.6886 15.4259 30.6637 15.3387 30.6513C15.2538 30.6267 15.1659 30.6141 15.0775 30.6139C14.9903 30.6014 14.8907 30.589 14.8036 30.589C14.7415 30.589 14.6794 30.6014 14.6169 30.6014C14.5175 30.6014 14.4303 30.614 14.3432 30.6389C14.256 30.6513 14.1689 30.6637 14.0819 30.6886C13.9947 30.7134 13.9076 30.7385 13.8204 30.7757C13.7335 30.813 13.6586 30.8505 13.5716 30.8877C13.4969 30.925 13.4223 30.9749 13.3352 31.0122C10.4356 32.9039 12.1653 37.334 14.144 38.6159C13.3973 38.7528 12.6381 38.9147 12.4267 39.0764L12.4019 39.1012C12.9369 39.425 13.4969 39.6987 14.0819 39.9351C14.8783 40.1964 15.7246 40.4328 16.0979 40.5324V40.5448C17.1289 40.7562 18.1833 40.8315 19.2339 40.7688C24.7469 40.3829 29.2644 36.1892 30.0857 30.6637C30.1105 30.7757 30.1355 30.8753 30.1604 30.9873C30.1977 31.2113 30.2475 31.4477 30.2724 31.6842V31.6968C30.2972 31.8088 30.3097 31.9208 30.3223 32.0204V32.07C30.3347 32.182 30.3471 32.294 30.3471 32.3936C30.3595 32.5305 30.372 32.6673 30.372 32.8044V33.0033C30.372 33.0656 30.3844 33.1404 30.3844 33.2025C30.3844 33.2772 30.372 33.3519 30.372 33.4265V33.6008C30.372 33.6879 30.3595 33.7627 30.3595 33.8496C30.3595 33.8995 30.3595 33.9492 30.3469 34.0115C30.3469 34.0985 30.3345 34.1856 30.3345 34.2852C30.3221 34.3225 30.3221 34.3599 30.3221 34.3972C30.3097 34.4968 30.2972 34.5839 30.2846 34.6833C30.2846 34.7208 30.2846 34.758 30.2722 34.7955C30.2598 34.9197 30.2349 35.0319 30.2225 35.1564V35.1812C30.1977 35.2932 30.1726 35.4178 30.1478 35.5298V35.5671L30.073 35.9031C30.073 35.9155 30.0606 35.9404 30.0606 35.9528C30.0358 36.0648 30.0109 36.1768 29.9735 36.289V36.3262C29.9362 36.4507 29.8989 36.5627 29.8741 36.6747C29.8615 36.6871 29.8615 36.6995 29.8615 36.6995L29.7495 37.0728C29.6998 37.1974 29.6625 37.3094 29.6126 37.4338C29.5629 37.558 29.5255 37.6827 29.4758 37.7947C29.4259 37.9191 29.376 38.0311 29.3265 38.1555H29.3139C29.2642 38.2675 29.2143 38.3919 29.152 38.5039C29.1419 38.5339 29.1294 38.563 29.1147 38.5911C29.1023 38.6037 29.1023 38.6159 29.0899 38.6285C28.281 40.2587 27.0863 41.6898 25.593 42.8098C25.4933 42.8719 25.3939 42.9468 25.2943 43.0214C25.2695 43.0462 25.2322 43.0588 25.2072 43.0835C25.12 43.1458 25.033 43.2081 24.9335 43.2702L24.9707 43.345H24.9832L25.5059 43.2702H25.5183C25.8421 43.2205 26.1655 43.1582 26.489 43.0961C26.5762 43.0837 26.6758 43.0588 26.7627 43.034C26.825 43.0214 26.8747 43.009 26.937 42.9965C27.0242 42.9841 27.1114 42.9593 27.1983 42.9467C27.273 42.9218 27.3478 42.9094 27.4223 42.8845C28.6669 42.5858 29.8741 42.1751 31.0314 41.6898C29.0526 44.3902 26.4019 46.5681 23.3032 47.9993C24.7343 47.8997 26.1655 47.6633 27.5469 47.2652C32.5621 45.7841 36.7808 42.4117 39.3071 37.8694C38.7943 40.7507 37.6511 43.4832 35.9594 45.8713C37.1654 45.0757 38.2798 44.1492 39.2821 43.1085C42.0698 40.1965 43.8991 36.5004 44.5214 32.5305C44.9459 34.5 45.0676 36.5227 44.8823 38.529C53.8673 25.997 45.629 13.0048 42.1818 9.58252C42.1692 9.55767 42.157 9.54525 42.157 9.5204C42.1444 9.53282 42.1444 9.53282 42.1444 9.54525C42.1444 9.53263 42.1444 9.53263 42.132 9.5204C42.132 9.66967 42.1195 9.81894 42.1071 9.9684C42.0698 10.2545 42.0324 10.5284 41.9827 10.8023C41.9206 11.076 41.8458 11.3497 41.7711 11.6236C41.6825 11.8929 41.5828 12.1586 41.4724 12.4198C41.358 12.6777 41.2335 12.931 41.0991 13.1791C40.9623 13.4156 40.813 13.6644 40.6511 13.8884C40.4911 14.1198 40.3209 14.3441 40.141 14.5604C39.9541 14.7844 39.7551 14.9836 39.556 15.1827C39.4388 15.2899 39.3185 15.3936 39.1951 15.4937C39.0954 15.5808 39.0084 15.6556 38.9088 15.7427C38.6848 15.9168 38.4608 16.0787 38.212 16.228C37.9755 16.3772 37.7265 16.5267 37.4778 16.6511C37.2162 16.7756 36.9549 16.8876 36.6937 16.9996C36.4284 17.0997 36.1585 17.1869 35.8848 17.2608C35.6096 17.3349 35.3314 17.3972 35.0509 17.4476C34.7648 17.4974 34.4787 17.5223 34.2048 17.5471C34.0057 17.5596 33.8065 17.572 33.6074 17.572C33.3212 17.572 33.0349 17.5471 32.7612 17.5223C32.4749 17.4972 32.1886 17.46 31.9149 17.3977C31.6288 17.348 31.3549 17.2734 31.081 17.1863H31.0686C31.3425 17.1612 31.6164 17.1364 31.8901 17.0865C32.1708 17.0375 32.4491 16.9753 32.724 16.9C32.9976 16.826 33.2675 16.7388 33.5326 16.6387C33.8065 16.5389 34.0678 16.4147 34.3168 16.2901C34.5781 16.1659 34.8145 16.0288 35.0634 15.8796C35.2998 15.7177 35.5364 15.5558 35.7604 15.3817C35.9833 15.2083 36.1952 15.0213 36.3949 14.8217C36.6065 14.6349 36.7932 14.4236 36.98 14.2118C37.1618 13.9939 37.3361 13.7698 37.5025 13.5398C37.5274 13.5025 37.5524 13.4528 37.5772 13.4156C37.7017 13.2164 37.8261 13.0172 37.9381 12.8181C38.075 12.5713 38.1996 12.318 38.3115 12.0589C38.4239 11.7985 38.5236 11.5328 38.6101 11.2627C38.6972 11.0011 38.7595 10.7274 38.8217 10.4537C38.8715 10.1676 38.9214 9.89367 38.9461 9.61979C38.9709 9.33367 38.996 9.04755 38.996 8.77367C38.996 8.57452 38.9835 8.37536 38.9711 8.17621C38.9463 7.89009 38.909 7.61621 38.8714 7.34233C38.8224 7.06164 38.7602 6.78343 38.685 6.50863C38.5977 6.24736 38.5107 5.97348 38.4111 5.71221C38.3114 5.45094 38.1871 5.18948 38.0627 4.94063C37.9257 4.69179 37.7888 4.44275 37.6395 4.20652C37.4806 3.97325 37.3146 3.74494 37.1417 3.52191C36.9543 3.30725 36.7635 3.09564 36.5692 2.88718C36.4644 2.78043 36.3565 2.67673 36.2457 2.57621C35.6881 2.14319 35.1109 1.73617 34.5158 1.35645C34.4354 1.31009 34.3523 1.2686 34.2669 1.23221C33.8564 0.970752 33.4707 0.833905 33.0848 0.709482L33.0844 0.709293Z" fill="#E0234E" />
	</g>
	<defs>
		<clipPath id="clip0_5_171">
			<rect width="48.1882" height="48" fill="white" transform="translate(0.753426 2.28882e-05)" />
		</clipPath>
	</defs>
</svg>
