<svg  viewBox="0 0 60 36" fill="none" xmlns="http://www.w3.org/2000/svg">
	<g clip-path="url(#clip0_5_157)">
		<path d="M14.075 9.38575H25.3256V10.28H15.1063V17.0102H24.7163V17.9043H15.1063V25.2934H25.4428V26.1876H14.075V9.38575ZM26.3336 9.38575H27.5289L32.8261 16.7748L38.2404 9.38563L45.6048 0L33.5057 17.5515L39.7405 26.1876H38.4982L32.8261 18.328L27.1304 26.1876H25.9116L32.1932 17.5513L26.3335 9.38575H26.3336ZM40.1858 10.28V9.38563H53.0069V10.2799H47.1002V26.1875H46.0689V10.28H40.1858ZM0 9.38563H1.28913L19.0654 35.9864L11.7195 26.1875L1.07814 10.6565L1.0313 26.1877H0V9.38563ZM52.903 25.0234C52.6922 25.0234 52.5343 24.8603 52.5343 24.6492C52.5343 24.4383 52.6922 24.275 52.903 24.275C53.1162 24.275 53.2717 24.4382 53.2717 24.6492C53.2717 24.8602 53.1162 25.0234 52.903 25.0234ZM53.9163 24.0389H54.4682C54.4757 24.3377 54.6939 24.5387 55.015 24.5387C55.3737 24.5387 55.5769 24.3227 55.5769 23.9183V21.3564H56.1388V23.9208C56.1388 24.6492 55.7174 25.0687 55.02 25.0687C54.3652 25.0687 53.9163 24.6617 53.9163 24.0388V24.0389ZM56.8737 24.0063H57.4306C57.4783 24.3503 57.8144 24.5688 58.2986 24.5688C58.75 24.5688 59.0811 24.3352 59.0811 24.0137C59.0811 23.7375 58.8704 23.5717 58.3913 23.4587L57.9247 23.3457C57.2699 23.1924 56.9716 22.876 56.9716 22.3435C56.9716 21.6981 57.4983 21.2685 58.2884 21.2685C59.0233 21.2685 59.5602 21.698 59.5928 22.3083H59.0459C58.9933 21.9743 58.7022 21.7658 58.2808 21.7658C57.837 21.7658 57.541 21.9793 57.541 22.3058C57.541 22.5644 57.7315 22.7127 58.2031 22.8232L58.6019 22.9212C59.3444 23.0945 59.6505 23.3959 59.6505 23.9409C59.6505 24.6341 59.1137 25.0687 58.2559 25.0687C57.4532 25.0687 56.9138 24.6542 56.8737 24.0062V24.0063Z" fill="white" />
	</g>
	<defs>
		<clipPath id="clip0_5_157">
			<rect width="59.6505" height="36" fill="white" />
		</clipPath>
	</defs>
</svg>
