<svg  viewBox="0 0 43 48" fill="none" xmlns="http://www.w3.org/2000/svg">
	<g clip-path="url(#clip0_5_168)">
		<path d="M21.2595 47.9114C20.5993 47.9114 19.9831 47.7354 19.4109 47.4273L13.5568 43.95C12.6765 43.4658 13.1166 43.2898 13.3807 43.2018C14.5691 42.8056 14.7891 42.7176 16.0215 42.0132C16.1537 41.9252 16.3298 41.9692 16.4617 42.0572L20.9514 44.7422C21.1275 44.8303 21.3475 44.8303 21.4796 44.7422L39.0419 34.5747C39.218 34.4867 39.306 34.3106 39.306 34.0906V13.7992C39.306 13.5791 39.218 13.4031 39.0419 13.315L21.4796 3.19135C21.3035 3.10332 21.0835 3.10332 20.9514 3.19135L3.38907 13.3152C3.21301 13.4032 3.12498 13.6233 3.12498 13.7993V34.0906C3.12498 34.2666 3.21301 34.4867 3.38907 34.5747L8.18691 37.3476C10.7839 38.668 12.4122 37.1275 12.4122 35.587V15.5597C12.4122 15.2957 12.6325 15.0316 12.9406 15.0316H15.1854C15.4495 15.0316 15.7136 15.2516 15.7136 15.5597V35.5869C15.7136 39.0641 13.8208 41.0888 10.5196 41.0888C9.50732 41.0888 8.71507 41.0888 6.47037 39.9884L1.84858 37.3476C0.704221 36.6872 0 35.4548 0 34.1344V13.8434C0 12.5229 0.704221 11.2906 1.84858 10.6302L19.4109 0.462656C20.5113 -0.153537 22.0077 -0.153537 23.1081 0.462656L40.6704 10.6302C41.8148 11.2904 42.519 12.5228 42.519 13.8434V34.1346C42.519 35.455 41.8148 36.6874 40.6704 37.3476L23.1081 47.5154C22.5359 47.7795 21.8757 47.9116 21.2595 47.9116V47.9114ZM26.6734 33.9584C18.9706 33.9584 17.3861 30.4372 17.3861 27.4441C17.3861 27.1801 17.6062 26.916 17.9143 26.916H20.203C20.4671 26.916 20.6873 27.092 20.6873 27.3561C21.0394 29.6888 22.0518 30.8334 26.7174 30.8334C30.4147 30.8334 31.9994 29.9971 31.9994 28.0165C31.9994 26.872 31.5592 26.0357 25.7931 25.4633C20.9954 24.9792 18.0023 23.9229 18.0023 20.0937C18.0023 16.5282 20.9953 14.4155 26.0132 14.4155C31.6471 14.4155 34.4202 16.3521 34.7723 20.5776C34.7723 20.7097 34.7282 20.8417 34.6402 20.9738C34.5522 21.0618 34.4201 21.1498 34.2881 21.1498H31.9994C31.7792 21.1498 31.5592 20.9738 31.5151 20.7537C30.9869 18.3329 29.6225 17.5407 26.0132 17.5407C21.9639 17.5407 21.4796 18.9491 21.4796 20.0055C21.4796 21.282 22.0518 21.678 27.5096 22.3822C32.9237 23.0864 35.4765 24.0989 35.4765 27.8843C35.4325 31.7577 32.2635 33.9584 26.6734 33.9584Z" fill="#539E43" />
	</g>
	<defs>
		<clipPath id="clip0_5_168">
			<rect width="42.519" height="48" fill="white" />
		</clipPath>
	</defs>
</svg>
