<svg viewBox="0 0 55 48" fill="none" xmlns="http://www.w3.org/2000/svg">
	<g clip-path="url(#clip0_5_160)">
		<path d="M44.8191 15.5423C44.2455 15.3455 43.6671 15.1632 43.0843 14.9955C43.1822 14.5955 43.2723 14.2004 43.3523 13.8122C44.6656 7.43722 43.8071 2.30143 40.8747 0.610481C38.0631 -1.01057 33.465 0.679744 28.8212 4.72122C28.3635 5.12024 27.916 5.53075 27.4791 5.95238C27.1866 5.67201 26.8889 5.39709 26.5862 5.12774C21.7193 0.806481 16.841 -1.01478 13.9117 0.681007C11.1027 2.30711 10.2709 7.13511 11.4532 13.1768C11.5708 13.7752 11.7036 14.3704 11.8515 14.9621C11.161 15.1583 10.4947 15.3671 9.85697 15.5894C4.15087 17.5789 0.506866 20.6966 0.506866 23.9305C0.506866 27.2705 4.41887 30.6206 10.362 32.652C10.8438 32.816 11.3297 32.9679 11.8191 33.1077C11.6601 33.7449 11.519 34.3865 11.3959 35.0315C10.2688 40.9684 11.149 45.6823 13.9504 47.2981C16.8439 48.9667 21.7003 47.2518 26.429 43.1181C26.8124 42.782 27.1874 42.4364 27.5536 42.0816C28.0268 42.5382 28.5126 42.9814 29.0104 43.4109C33.5911 47.3524 38.1149 48.944 40.9136 47.3237C43.8043 45.6503 44.7439 40.5863 43.5241 34.4252C43.428 33.9425 43.3203 33.4623 43.201 32.9848C43.542 32.8837 43.8768 32.7797 44.2031 32.6715C50.3816 30.6246 54.4016 27.3151 54.4016 23.9305C54.4016 20.6848 50.6399 17.5461 44.8191 15.5423ZM43.4791 30.4863C43.1843 30.5837 42.882 30.6779 42.5738 30.7694C41.8917 28.6101 40.9713 26.3141 39.8448 23.9416C40.9197 21.6259 41.8048 19.3591 42.4677 17.2139C43.0191 17.3734 43.554 17.5416 44.0698 17.7191C49.0572 19.4362 52.0993 21.9745 52.0993 23.9305C52.0993 26.0139 48.8138 28.7185 43.4791 30.4863ZM41.2656 34.8724C41.805 37.5966 41.8818 40.0597 41.5245 41.9854C41.2037 43.7157 40.5582 44.8692 39.7599 45.3313C38.0616 46.3145 34.4294 45.0366 30.5121 41.6656C30.049 41.2663 29.5972 40.8543 29.157 40.4299C30.6757 38.769 32.1934 36.8383 33.6747 34.6939C36.2801 34.4627 38.7416 34.0846 40.9738 33.5686C41.0813 34.0008 41.1786 34.4355 41.2656 34.8724ZM18.8808 45.1614C17.2214 45.7473 15.8997 45.7642 15.1008 45.3035C13.4008 44.3231 12.694 40.5381 13.658 35.461C13.7726 34.8611 13.9038 34.2644 14.0515 33.6717C16.2591 34.1602 18.7027 34.5113 21.3142 34.7231C22.8056 36.8214 24.3671 38.7501 25.9408 40.4389C25.6063 40.7625 25.264 41.0778 24.914 41.3846C22.8229 43.2124 20.7275 44.5092 18.8808 45.1614ZM11.1069 30.4734C8.47887 29.5751 6.30855 28.4077 4.82097 27.1339C3.48413 25.9892 2.80939 24.8526 2.80939 23.9305C2.80939 21.968 5.73508 19.4648 10.6149 17.7635C11.2071 17.5572 11.8269 17.3625 12.47 17.1797C13.1446 19.3734 14.0292 21.6671 15.0968 23.9865C14.0153 26.3402 13.118 28.6705 12.437 30.8901C11.9903 30.7621 11.5468 30.6232 11.1069 30.4734ZM13.7128 12.7345C12.6999 7.55827 13.3726 3.65364 15.0654 2.67364C16.8683 1.62985 20.8553 3.11806 25.0576 6.84943C25.3316 7.0933 25.6012 7.34211 25.8662 7.59574C24.3003 9.27722 22.7532 11.1915 21.2751 13.2774C18.7403 13.5124 16.314 13.8896 14.0833 14.3951C13.9458 13.8448 13.8223 13.2912 13.7128 12.7347V12.7345ZM36.9605 18.4751C36.4337 17.565 35.8872 16.6663 35.3216 15.7797C37.0412 15.9972 38.6888 16.2858 40.2359 16.6387C39.7715 18.1275 39.1926 19.684 38.5111 21.2797C38.013 20.3346 37.496 19.3996 36.9605 18.4751ZM27.4801 9.24122C28.542 10.3917 29.6056 11.6762 30.6517 13.0698C28.5296 12.9696 26.404 12.9692 24.2818 13.0686C25.329 11.6877 26.4016 10.405 27.4801 9.24122ZM17.9389 18.4909C17.4101 19.4079 16.9028 20.3372 16.4174 21.2779C15.7471 19.6877 15.1734 18.1242 14.705 16.6143C16.2427 16.2703 17.8824 15.989 19.5911 15.7755C19.0192 16.6675 18.4683 17.5728 17.9389 18.4907V18.4909ZM19.6401 32.2492C17.8749 32.0522 16.2104 31.7854 14.6732 31.4507C15.149 29.9139 15.7353 28.317 16.4201 26.6928C16.9075 27.6342 17.4169 28.564 17.9479 29.4814C18.494 30.4246 19.0595 31.3484 19.6401 32.2492ZM27.5437 38.7819C26.4523 37.6046 25.3639 36.3021 24.301 34.9012C25.333 34.9416 26.385 34.9623 27.4542 34.9623C28.5528 34.9623 29.6387 34.9376 30.7075 34.8901C29.658 36.3162 28.5984 37.6206 27.5437 38.7819ZM38.5328 26.6098C39.2532 28.252 39.8603 29.8404 40.3424 31.3509C38.7799 31.7075 37.0928 31.9947 35.3151 32.208C35.8847 31.3049 36.4363 30.3906 36.9696 29.4656C37.5118 28.5254 38.033 27.5733 38.5328 26.6098ZM34.9753 28.3153C34.1589 29.7335 33.2966 31.1248 32.3898 32.4869C30.7472 32.6032 29.101 32.661 27.4542 32.6602C25.777 32.6602 24.1456 32.608 22.5747 32.5061C21.6442 31.1471 20.7654 29.7534 19.9403 28.328H19.9405C19.1193 26.9101 18.3522 25.4615 17.641 23.9854C18.3504 22.509 19.1152 21.0597 19.9336 19.6408L19.9334 19.641C20.7515 18.2217 21.6232 16.8339 22.5467 15.4808C24.1494 15.3595 25.793 15.2964 27.454 15.2964H27.4542C29.1229 15.2964 30.7685 15.3602 32.3709 15.4823C33.285 16.8334 34.1511 18.2164 34.9677 19.6286C35.7888 21.0444 36.5637 22.4866 37.2911 23.9528C36.5712 25.434 35.7988 26.8891 34.9753 28.3153ZM39.7248 2.60501C41.5294 3.64585 42.2313 7.84311 41.0974 13.3473C41.025 13.6985 40.9437 14.0562 40.8553 14.4189C38.6191 13.9027 36.1911 13.5189 33.649 13.2804C32.1681 11.1715 30.6336 9.25427 29.0932 7.59448C29.4969 7.20532 29.9102 6.82626 30.3328 6.45764C34.3117 2.99511 38.0304 1.62795 39.7248 2.60501ZM27.4542 19.1178C30.1121 19.1178 32.2669 21.2726 32.2669 23.9305C32.2669 26.5884 30.1121 28.7431 27.4542 28.7431C24.7963 28.7431 22.6416 26.5884 22.6416 23.9305C22.6416 21.2726 24.7963 19.1178 27.4542 19.1178Z" fill="#00D8FF" />
	</g>
	<defs>
		<clipPath id="clip0_5_160">
			<rect width="53.8947" height="48" fill="white" transform="translate(0.506851)" />
		</clipPath>
	</defs>
</svg>
