<svg viewBox="0 0 50 50" fill="none" xmlns="http://www.w3.org/2000/svg">
	<g clip-path="url(#clip0_5_163)">
		<path d="M0.69278 24.8744V49.3209H49.5858V0.427902H0.69278V24.8744Z" fill="#007ACC" />
		<path d="M11.505 25.0367L11.4895 27.0389H17.8533V45.1216H22.3545V27.0389H28.7184V25.0755C28.7184 23.9888 28.6951 23.0808 28.6642 23.0575C28.6409 23.0266 24.768 23.0109 20.0729 23.0188L11.5281 23.0421L11.505 25.0365V25.0367ZM40.1447 22.9851C41.3863 23.2955 42.3332 23.8465 43.2024 24.7468C43.6525 25.2281 44.3199 26.1049 44.3743 26.3145C44.3896 26.3765 42.2633 27.8045 40.9751 28.604C40.9285 28.635 40.7421 28.4333 40.5326 28.1227C39.904 27.2069 39.2443 26.8112 38.2354 26.7413C36.7533 26.6405 35.7985 27.4165 35.8064 28.7125C35.8064 29.0929 35.8606 29.3179 36.0159 29.6283C36.3419 30.3036 36.9471 30.7072 38.8486 31.5298C42.3487 33.0353 43.8464 34.0287 44.7779 35.4412C45.8178 37.0167 46.0506 39.5312 45.3443 41.4016C44.5683 43.4348 42.6437 44.8163 39.935 45.2741C39.0969 45.4215 37.1102 45.3982 36.2099 45.2353C34.2466 44.8862 32.3839 43.9159 31.2352 42.6432C30.7851 42.1466 29.9081 40.8504 29.9625 40.7574C29.9858 40.7262 30.1875 40.6021 30.4125 40.4701C30.6298 40.346 31.4526 39.8725 32.2286 39.4226L33.6333 38.6076L33.9282 39.0423C34.3396 39.6707 35.2397 40.5322 35.7831 40.8194C37.3429 41.642 39.485 41.5257 40.5404 40.5788C40.9906 40.1676 41.1768 39.7407 41.1768 39.112C41.1768 38.5455 41.1069 38.2973 40.812 37.8704C40.4319 37.327 39.6557 36.8692 37.4515 35.9147C34.9293 34.8279 33.8428 34.153 32.8495 33.0819C32.2752 32.4612 31.7318 31.4677 31.5068 30.6373C31.3206 29.9465 31.2738 28.2159 31.4215 27.5175C31.9415 25.0805 33.7807 23.3809 36.4349 22.8765C37.2963 22.7136 39.2986 22.7756 40.1447 22.9851Z" fill="white" />
	</g>
	<defs>
		<clipPath id="clip0_5_163">
			<rect width="48.893" height="48.893" fill="white" transform="translate(0.69278 0.427902)" />
		</clipPath>
	</defs>
</svg>
